Coordinates
version=1
nRows=11
nColumns=36
inDegrees=yes

Units are S.I. units (second, meters, Newtons, ...)
If the header above contains a line with 'inDegrees', this indicates whether rotational values are in degrees (yes) or radians (no).

endheader
time	pelvis_tilt	pelvis_list	pelvis_rotation	pelvis_tx	pelvis_ty	pelvis_tz	hip_flexion_r	hip_adduction_r	hip_rotation_r	knee_angle_r	knee_angle_r_beta	ankle_angle_r	subtalar_angle_r	mtp_angle_r	hip_flexion_l	hip_adduction_l	hip_rotation_l	knee_angle_l	knee_angle_l_beta	ankle_angle_l	subtalar_angle_l	mtp_angle_l	lumbar_extension	lumbar_bending	lumbar_rotation	arm_flex_r	arm_add_r	arm_rot_r	elbow_flex_r	pro_sup_r	arm_flex_l	arm_add_l	arm_rot_l	elbow_flex_l	pro_sup_l
     44.75000000	      4.38181081	     -0.59797474	     -3.02477584	      0.61428524	      1.03847951	      0.69399541	     21.52729522	     -1.21049984	      2.04925135	     57.61213016	      1.00552136	      0.80903158	    -16.60999245	     -7.49999987	      0.46251243	      1.56450886	      0.66565798	     13.60513425	      0.23745439	     10.88383780	     -3.75729352	     -7.49999987	    -19.81886672	     -3.61082019	      5.34566133	     -6.21684907	    -15.81925152	      0.23337864	     35.30941016	     81.40670438	     17.86822138	    -14.83001575	     32.26626401	     27.21109448	     85.68232349
     44.76666670	      4.27195763	     -0.88975507	     -2.71947992	      0.61325122	      1.03759935	      0.69556199	     22.57548008	     -0.85185927	      1.62757934	     54.52532341	      0.95164642	      1.58934883	    -16.00202339	     -7.49999987	     -0.62262510	      1.34408262	      0.98392606	     13.24910462	      0.23124050	     11.76534561	     -3.71567007	     -7.49999987	    -19.66808806	     -3.15029178	      5.20715118	     -6.75812349	    -15.88620721	      0.23393487	     35.23602542	     81.45549697	     18.91525696	    -14.93855052	     32.36886911	     27.78518491	     85.67501704
     44.78333330	      4.36382628	     -1.04413310	     -2.45586934	      0.61285294	      1.03678517	      0.69668116	     23.17446053	     -0.69145707	      1.18879615	     51.05894946	      0.89114678	      2.28955258	    -15.27232384	     -7.49999987	     -1.97330234	      1.26216638	      1.52350457	     12.69395204	      0.22155126	     12.10677346	     -4.02293952	     -7.49999987	    -19.86689793	     -2.80987238	      4.58457110	     -6.98621039	    -15.81520711	      0.11360806	     35.60882142	     80.45162545	     19.49455106	    -15.48592770	     32.10211457	     29.11401045	     84.41360367
     44.80000000	      4.67502583	     -1.18414638	     -2.42086221	      0.61111014	      1.03649691	      0.69617997	     23.43060882	     -0.52785798	      0.95548354	     47.27431769	      0.82509250	      3.00232611	    -14.20245698	     -7.49999987	     -3.39337785	      1.10948363	      1.23348020	     12.44759217	      0.21725147	     13.47422793	     -2.62865886	     -7.49999987	    -20.25500792	     -2.69467504	      5.42079501	     -7.70391418	    -15.96300870	      0.38794981	     35.25552444	     81.46557634	     21.41729270	    -15.31361321	     33.81135437	     29.13723326	     85.14809084
     44.81666670	      4.74456533	     -1.14705283	     -2.36571552	      0.60846094	      1.03571527	      0.69444415	     23.86702708	     -0.60808179	      0.82977842	     43.27990211	      0.75537679	      3.23860170	    -13.40708012	     -7.49999987	     -4.41935168	      1.21490015	      1.58981430	     12.22673957	      0.21339686	     14.02539039	     -2.64783404	     -7.49999987	    -20.45096518	     -2.66694395	      6.39444987	     -8.92282985	    -15.56097335	     -1.92126185	     35.86705330	     83.97977884	     23.60483070	    -14.96698995	     37.17183215	     28.52458954	     85.38195426
     44.83333330	      4.67527845	     -1.04464093	     -2.40921032	      0.60674318	      1.03425008	      0.69322454	     24.33093362	     -0.76385942	      0.85298207	     39.09061604	      0.68225996	      3.02170866	    -12.53300131	     -7.49999987	     -5.12508691	      1.35021635	      1.62735653	     12.16781411	      0.21236842	     14.58976845	     -2.40211736	     -7.49999987	    -20.50026611	     -2.67832551	      6.29231744	     -8.70831746	    -15.39994067	     -1.74316917	     35.23184691	     84.66528736	     24.23469802	    -15.02475848	     36.62238083	     29.03236947	     85.47389236
     44.85000000	      4.62257065	     -0.88845055	     -2.50077435	      0.60643562	      1.03254228	      0.69298194	     24.65518018	     -0.98891565	      0.95038305	     34.82197933	      0.60775819	      2.48922737	    -11.66532097	     -7.49999987	     -5.74184413	      1.51027430	      1.50366840	     12.21368581	      0.21316903	     15.16108608	     -2.25018748	     -7.49999987	    -20.51955145	     -2.68305543	      6.07953087	     -8.35543612	    -15.26839668	     -1.46007977	     34.75262576	     84.94569254	     24.56357555	    -15.16550759	     36.18007010	     29.53764828	     85.09262684
     44.86666670	      4.55873528	     -0.60886043	     -2.56409266	      0.60568140	      1.03156373	      0.69329211	     24.86079814	     -1.38512322	      0.96780136	     30.44320736	      0.53133420	      1.93319101	    -10.35287490	     -7.49999987	     -6.33313957	      1.78921166	      1.54734651	     12.20535554	      0.21302364	     15.51680636	     -2.47233156	     -7.49999987	    -20.56882445	     -2.84381833	      6.06452859	     -7.94140258	    -15.04224367	     -1.36674681	     33.83335817	     85.62797207	     24.97237710	    -15.16031767	     35.62804799	     29.83791265	     85.28335839
     44.88333330	      4.50021034	     -0.35476785	     -2.57353335	      0.60355114	      1.03072973	      0.69411713	     24.87729389	     -1.75528328	      0.77828899	     25.88451588	      0.45177003	      1.43705482	     -8.66711503	     -7.49999987	     -6.97159996	      1.95262671	      1.26189601	     12.15380848	      0.21212397	     16.24536469	     -2.09825015	     -7.49999987	    -20.61932545	     -2.88118702	      5.78208194	     -7.53202444	    -14.84525462	     -1.22514296	     33.46624326	     86.23258409	     25.04964739	    -15.35537785	     35.05954215	     30.15855720	     85.30442409
     44.90000000	      4.36083698	      0.08618717	     -2.43692222	      0.60087237	      1.02995590	      0.69591497	     24.94947109	     -2.33991511	      0.33672910	     21.53945949	      0.37593449	      1.43440211	     -6.25351673	     -7.49999987	     -7.58630820	      2.32927496	      1.68309553	     11.91005778	      0.20786972	     16.58275166	     -2.65054112	     -7.49999987	    -20.58946105	     -3.15219451	      5.54074393	     -7.08492953	    -14.50001239	     -1.12801374	     32.74658022	     86.22724318	     25.18018651	    -15.49039710	     34.49487975	     30.50618442	     85.02821598
     44.91666670	      4.18232110	      0.48581327	     -2.28875616	      0.59905607	      1.02987224	      0.69947580	     25.03320757	     -2.77732593	     -0.09130136	     17.67375446	      0.30846521	      1.50085576	     -3.83656680	     -7.49999987	     -8.13488008	      2.57439614	      1.73411073	     11.73324703	      0.20478379	     17.37383207	     -2.40649098	     -7.49999987	    -20.45225610	     -3.40064850	      5.24576684	     -6.65456280	    -14.18880290	     -0.78067800	     32.30516630	     85.98635022	     25.12702604	    -15.73081368	     34.05034037	     30.91558245	     84.52298914
